<svg xmlns="http://www.w3.org/2000/svg" viewBox="0 0 126.3 100.21">
  <title>firmaLleras</title>
  <g id="Layer_2" data-name="Layer 2">
    <g id="Contenido">
      <g id="FirmaPequeña">
        <path d="M122.36,53.21c-.8,1.45-2.36,1.43-3.65,1.81-9.87,2.89-19.79,5.65-29.64,8.62A189.44,189.44,0,0,0,55.74,77.17,43.64,43.64,0,0,0,50.45,81,26.25,26.25,0,0,1,48,82.78c-.94.53-2,.65-2.64-.49a1.85,1.85,0,0,1,.73-2.63c1.45-1,2.94-1.86,4.45-2.72a176,176,0,0,1,30.6-13.45A297.82,297.82,0,0,1,119.72,53C120.53,52.89,121.37,52.29,122.36,53.21Z"/>
        <path d="M100.17,34.44c1.21.49,1.61-.62,2.38-.86s1.7-.49,2.33.37a1.77,1.77,0,0,1-.24,2.37,24.16,24.16,0,0,0-4.93,8.48c-.47,1.27-1.79,2.77-3.36,1.49s-2.56-.74-3.87,0a1.73,1.73,0,0,1-2.36-.1,1.9,1.9,0,0,1,0-2.41,118.48,118.48,0,0,1,9.17-13.61,3.78,3.78,0,0,1,3.49-1.33c.76.06,1.48.31,1.66,1.11a1.17,1.17,0,0,1-.89,1.31A6.1,6.1,0,0,0,100.17,34.44Z"/>
        <path d="M116.24,39.3a2.62,2.62,0,0,0-.62-3.14c-1.66-1.89-1.11-3.75.38-5.43a17.5,17.5,0,0,1,5.53-4.11c.82-.4,1.78-.51,2.33.36s-.07,1.59-.87,2.07c-.6.37-1.32.63-1.43,1.48.35.78.93.43,1.42.24,1.14-.45,2.27-.79,3,.56.65,1.17.16,2.25-.52,3.23a17.41,17.41,0,0,1-3.74,3.59c-1.24,1-2.52,1.92-3.79,2.88C116.09,41.74,115.56,41.12,116.24,39.3Z"/>
        <path d="M116.24,39.3A2.7,2.7,0,0,0,118,41c-4.25,5.5-9.94,9.32-15.68,14.3C103,51.7,106.86,47.45,116.24,39.3Z"/>
        <path d="M87.87,35.08c-1-1.07-1.75.19-2.43.79-.85.74-1.52,1.69-2.4,2.39s-1.28,0-1.62-.69h0c.39-1,1.17-2.15,0-3.06s-2.12,0-3,.65a9.43,9.43,0,0,0-1.4,1.53h0C75.11,41,71.1,43.43,68.23,47c.26-2.86,1.91-5,3.29-7.24.53-.86,1.25-1.6,1.74-2.47s1.61-2.14.68-3.13c-1.16-1.23-1.86.76-2.91.88h0c-3.26,4.19-6.31,8.56-11,11.38-1.76,1.06-1.52,2.37.11,3.3,1.15.66,1.88,1.27,1.35,2.68s-1.43,3.31.58,4.1c1.71.68,2.79-1,3.82-2.21l.83-1a8.83,8.83,0,0,0,2.52-2.67h0c1.33-3.47,4.48-5.36,6.93-7.94-.47,2.76-2.36,4.77-3.55,7.12-1.08,2.12-.91,2.37,1.86,3.45h0l6.91-8.8c.93-1.1,1.81-2.24,2.7-3.36h0c1.43-.77,2.19-2.19,3.25-3.33C88,37,88.63,35.89,87.87,35.08Z"/>
        <path d="M73.72.18c-.93-.5-1.72.14-2.26.81a27.94,27.94,0,0,0-3,4.21c-2,3.71-4,7.36-7,10.41-2.52,2.59-4.87,5.35-7.37,8-.64.67-1.19,1.67-2.52,1.52-.09-1.51.64-2.78,1.09-4.11.7-2.06,1.45-4.1,2.09-6.17.34-1.1.75-2.44-.86-2.87-1.29-.35-1.73.8-2.07,1.75-.78,2.19-1.55,4.38-2.21,6.6-2.38,8-5.67,15.5-11.75,21.48h0c-5.78,7.37-11.54,14.75-17.54,22S8.72,78.47,4.65,87h0a31.75,31.75,0,0,0-4.4,9.37c-.35,1.36-.51,2.68.79,3.51s2.29-.2,3.31-1.12c4.33-3.9,7.76-8.6,11.29-13.13A291.94,291.94,0,0,0,45.3,38.69c3-6,8.09-10.19,12.3-15.59a2.33,2.33,0,0,1,0,2.31C52.91,33.73,49.07,42.55,42.9,50a24.66,24.66,0,0,0-3.22,5.15c-.74,1.56-2.6,3.18-.82,5.09,1,1,2.76-.47,4.09-3.48,1-2.24,1.55-4.67,3-6.73,5.46-7.86,9.88-16.35,14.64-24.62,4-6.88,7.1-14.27,12.52-20.26a6.63,6.63,0,0,0,1.21-2.28C74.65,1.9,74.85.78,73.72.18ZM31.8,56.66c-2.48,3-4,6.6-5.89,9.94-5.16,9-12,16.82-18.46,24.89-1.67,2.26-1.84,2.31-2.68.92a7.66,7.66,0,0,1,1.07-3.24c.28-.52.56-1,.84-1.56,5.94-10.87,13.59-20.53,21.4-30.08a35.81,35.81,0,0,1,2.75-2.73h0c2-2.87,4-5.74,6.09-8.59a1.79,1.79,0,0,1,1.83-.82C36.64,49.27,34.9,53.39,31.8,56.66Z"/>
      </g>
    </g>
  </g>
</svg>
