<svg xmlns="http://www.w3.org/2000/svg" viewBox="0 0 147 59.65">
  <title>Asset 1</title>
  <g id="Layer_2" data-name="Layer 2">
    <g id="Layer_1-2" data-name="Layer 1">
      <g id="Layer_2-2" data-name="Layer 2">
        <g>
          <path d="M26.73,28.89c0,3.85,7.48,7.29,5.17,18-.79,3.66-1.81,8.48-5.17,10.14A14.39,14.39,0,0,1,10,54.53" style="fill: none;stroke: #28b1b5;stroke-miterlimit: 10;stroke-width: 2px"/>
          <path d="M3.32,52.53a4.27,4.27,0,1,0,4.27-4.27A4.27,4.27,0,0,0,3.32,52.53Zm.77,0A3.5,3.5,0,1,1,7.59,56,3.5,3.5,0,0,1,4.09,52.53Z" style="fill: #e0dcd3"/>
          <path d="M4.09,52.53A3.5,3.5,0,1,0,7.59,49,3.5,3.5,0,0,0,4.09,52.53Zm1.84,0a1.66,1.66,0,1,1,1.66,1.66A1.66,1.66,0,0,1,5.93,52.53Z" style="fill: #f7f1e6"/>
          <circle cx="7.59" cy="52.53" r="1.73" style="fill: #2b3237"/>
          <path d="M28.29,31.93c.38-.3.73-.61,1.06-.93,4.32-4.19,4.67-9.89,3.57-11.28a.56.56,0,0,0-.12-.11v0c-.7,3.8-3,7.27-6.83,10.31l-.16.13a2,2,0,0,1-.34.21,17.05,17.05,0,0,1-9.89,3.59c1.58,1.3,7.24,2,12.16-1.54Z" style="fill: #505456"/>
          <path d="M27.91,8.89A2,2,0,0,1,29,8.62c-.25-.36-.51-.71-.78-1.06a17.91,17.91,0,0,0-7.93-5.89,10.14,10.14,0,0,0-4.83-.52A2.23,2.23,0,0,1,15.76,3c3.79-.64,8.2,2.05,11.08,5.68.18.23.35.46.52.69A2,2,0,0,1,27.91,8.89Z" style="fill: #28b1b5"/>
          <path d="M6.08,26.22c-.19-.22-.38-.44-.56-.67C2.65,21.94,1,17,2.53,13.48A2.23,2.23,0,0,1,.77,12.8a10.14,10.14,0,0,0-.6,4.82A17.91,17.91,0,0,0,4.1,26.69q.41.52.85,1a2,2,0,0,1,.52-1A2,2,0,0,1,6.08,26.22Z" style="fill: #28b1b5"/>
          <path d="M32.8,19.64v0a14.06,14.06,0,0,0-2-9.89A2.24,2.24,0,0,0,29,8.62a2,2,0,0,0-1.13.27,2,2,0,0,0-.56.49,2.14,2.14,0,0,0-.1,2.42c2.9,4.77,1.66,9.91-3.38,14.21l0,0h0c-5.6,4.5-11.21,4.74-15.39.64a2.14,2.14,0,0,0-2.38-.46,2,2,0,0,0-.61.43,2,2,0,0,0-.52,1,2.24,2.24,0,0,0,.65,2,14.05,14.05,0,0,0,9.22,4.19h.77a17.05,17.05,0,0,0,9.89-3.59,2,2,0,0,0,.34-.21l.16-.13C29.81,26.91,32.1,23.44,32.8,19.64Z" style="fill: #aab2b2"/>
          <path d="M15.61,1.06,15.48.87a2.16,2.16,0,0,0-3-.43c-.91.72-1.85,2.73-1.09,3.69s2.93.5,3.84-.22a2,2,0,0,0,.67-1A2.23,2.23,0,0,0,15.61,1.06Z" style="fill: #35e0ed"/>
          <path d="M2.41,13.57a2,2,0,0,0,1.1-.43c.91-.72,1.85-2.73,1.09-3.69S1.68,9,.77,9.68a2.16,2.16,0,0,0-.27,3l.16.18A2.23,2.23,0,0,0,2.41,13.57Z" style="fill: #35e0ed"/>
        </g>
      </g>
      <text transform="translate(36.12 26.8)" style="font-size: 29.65016746520996px;fill: #505456;font-family: MontserratAlternates-Medium, Montserrat Alternates">a<tspan x="20.22" y="0" style="letter-spacing: -0.00999612292570575em">l</tspan><tspan x="29.44" y="0" style="letter-spacing: 0.000016468077307587726em">e</tspan><tspan x="47.59" y="0" style="letter-spacing: 0.0029971900699809657em">n</tspan><tspan x="67.87" y="0">o</tspan></text>
      <text transform="translate(55.66 46.77)" style="font-size: 12.971946716308594px;fill: #6a6b6b;font-family: MontserratAlternates-Medium, Montserrat Alternates">SGIPS</text>
      <path d="M116.24,43.21h.16a1.61,1.61,0,0,0,1.38-.8l7-15.17,6.46,11.14a1.47,1.47,0,0,0,1.16.68,1.93,1.93,0,0,0,1.43-.32L141,33.39h4.45c.9,0,1.59-.52,1.59-1.2s-.69-1.2-1.59-1.2h-5.08a1.79,1.79,0,0,0-1.11.36l-6,4.47L126,23.49a1.76,1.76,0,0,0-1.54-.72,1.54,1.54,0,0,0-1.43.8L115.92,39.1l-5-6.71a1.72,1.72,0,0,0-1.38-.6h-6.46c.9,0-66.63.24-66.63.92s65.73,1.48,66.63,1.48h5.51l6.3,8.42A1.72,1.72,0,0,0,116.24,43.21Z" style="fill: #35e0ed"/>
    </g>
  </g>
</svg>
